HIERARCHY
ROOT Pelvis
{
	OFFSET 0.000000 0.000000 0.000000
	CHANNELS 6 Xposition Yposition Zposition Xrotation Yrotation Zrotation
	JOINT LeftUpLeg_virtual
	{
		OFFSET 0.000000 0.000000 0.000000
		CHANNELS 3 Xrotation Yrotation Zrotation
		JOINT LeftUpLeg
		{
			OFFSET 18.735201 -5.666702 -4.541200
			CHANNELS 3 Xrotation Yrotation Zrotation
			JOINT LeftLeg
			{
				OFFSET -0.021200 -31.938179 0.493100
				CHANNELS 3 Xrotation Yrotation Zrotation
				JOINT LeftFoot
				{
					OFFSET 0.021200 -31.938179 -4.336299
					CHANNELS 3 Xrotation Yrotation Zrotation
					JOINT LeftToeBase
					{
						OFFSET 0.943001 -26.722000 15.023500
						CHANNELS 3 Xrotation Yrotation Zrotation
						End Site
						{
							OFFSET 0 0 0
						}
					}
				}
			}
		}
	}
	JOINT RightUpLeg_virtual
	{
		OFFSET 0.000000 0.000000 0.000000
		CHANNELS 3 Xrotation Yrotation Zrotation
		JOINT RightUpLeg
		{
			OFFSET -18.735201 -5.666702 -4.541200
			CHANNELS 3 Xrotation Yrotation Zrotation
			JOINT RightLeg
			{
				OFFSET 0.018946 -31.938133 0.493100
				CHANNELS 3 Xrotation Yrotation Zrotation
				JOINT RightFoot
				{
					OFFSET -0.018946 -31.938126 -4.336299
					CHANNELS 3 Xrotation Yrotation Zrotation
					JOINT RightToeBase
					{
						OFFSET -0.943001 -26.722004 15.023500
						CHANNELS 3 Xrotation Yrotation Zrotation
						End Site
						{
							OFFSET 0 0 0
						}
					}
				}
			}
		}
	}
	JOINT Hips_virtual
	{
		OFFSET 0.000000 0.000000 0.000000
		CHANNELS 3 Xrotation Yrotation Zrotation
		JOINT Hips
		{
			OFFSET -0.000000 -0.000000 -0.000000
			CHANNELS 3 Xrotation Yrotation Zrotation
			JOINT Spine
			{
				OFFSET 0.000000 10.199997 -0.299500
				CHANNELS 3 Xrotation Yrotation Zrotation
				JOINT Spine1
				{
					OFFSET 0.000000 11.900002 -1.516600
					CHANNELS 3 Xrotation Yrotation Zrotation
					JOINT Spine2
					{
						OFFSET 0.000000 13.600006 -2.842500
						CHANNELS 3 Xrotation Yrotation Zrotation
						JOINT Neck_virtual
						{
							OFFSET 0.000000 0.000000 0.000000
							CHANNELS 3 Xrotation Yrotation Zrotation
							JOINT Neck
							{
								OFFSET 0.000000 9.624100 -2.890100
								CHANNELS 3 Xrotation Yrotation Zrotation
								JOINT Head
								{
									OFFSET 0.000000 14.068802 -1.351900
									CHANNELS 3 Xrotation Yrotation Zrotation
									End Site
									{
										OFFSET 0 0 0
									}
								}
							}
						}
						JOINT LeftShoulder_virtual
						{
							OFFSET 0.000000 0.000000 0.000000
							CHANNELS 3 Xrotation Yrotation Zrotation
							JOINT LeftShoulder
							{
								OFFSET 15.263000 10.923401 -0.547700
								CHANNELS 3 Xrotation Yrotation Zrotation
								JOINT LeftArm
								{
									OFFSET 25.438599 -2.830597 -13.032500
									CHANNELS 3 Xrotation Yrotation Zrotation
									JOINT LeftForeArm
									{
										OFFSET 29.960503 0.000000 0.000000
										CHANNELS 3 Xrotation Yrotation Zrotation
										JOINT LeftHand
										{
											OFFSET 27.849251 0.000000 0.000000
											CHANNELS 3 Xrotation Yrotation Zrotation
											End Site
											{
												OFFSET 0 0 0
											}
										}
									}
								}
							}
						}
						JOINT RightShoulder_virtual
						{
							OFFSET 0.000000 0.000000 0.000000
							CHANNELS 3 Xrotation Yrotation Zrotation
							JOINT RightShoulder
							{
								OFFSET -15.263000 10.923401 -0.547700
								CHANNELS 3 Xrotation Yrotation Zrotation
								JOINT RightArm
								{
									OFFSET -25.438599 -2.830597 -13.032500
									CHANNELS 3 Xrotation Yrotation Zrotation
									JOINT RightForeArm
									{
										OFFSET -29.960503 0.000000 0.000000
										CHANNELS 3 Xrotation Yrotation Zrotation
										JOINT RightHand
										{
											OFFSET -27.849251 0.000000 0.000000
											CHANNELS 3 Xrotation Yrotation Zrotation
											End Site
											{
												OFFSET 0 0 0
											}
										}
									}
								}
							}
						}
					}
				}
			}
		}
	}
}
MOTION
Frames: 4
Frame Time: 0.03333333
-2.681002 80.373825 2.552223 0.000000 0.000000 0.000000 -5.398395 -46.091063 -0.138903 -36.910875 3.269471 21.343901 62.508430 -8.152305 4.188297 -22.911274 -6.711830 -18.589806 0.000000 0.000000 0.000000 -5.398395 -46.091063 -0.138903 -20.977729 -8.981010 -32.624713 63.053725 -6.514537 -7.419383 -31.031991 -9.960293 27.205253 0.000000 0.000000 0.000000 -5.398395 -46.091063 -0.138903 -0.000000 0.000001 0.000001 9.462109 7.035683 -1.694602 2.187715 0.989896 -0.915630 0.000000 0.000000 0.000000 2.202828 0.982776 -0.894152 2.650019 3.452598 -0.064153 0.000000 0.000000 0.000000 2.202828 0.982776 -0.894152 1.117178 3.546349 -8.633310 -53.486996 4.935510 -51.502983 -179.999732 -73.641952 -179.999732 0.000000 0.000000 0.000000 2.202828 0.982776 -0.894152 3.036130 13.027198 -5.371408 -48.713705 27.172825 83.457071 -179.999950 74.011657 179.999923 0.000000 0.000000 0.000000 
-2.424549 80.645706 2.342884 0.000000 0.000000 0.000000 -5.978194 -46.481654 -0.045946 -35.882272 3.709481 20.582031 61.312730 -7.450369 4.183720 -22.272747 -6.726662 -18.784905 0.000000 0.000000 0.000000 -5.978194 -46.481654 -0.045946 -21.200760 -8.352522 -33.133606 63.134116 -6.347621 -7.400658 -30.653042 -9.776715 27.028455 0.000000 0.000000 0.000000 -5.978194 -46.481654 -0.045946 0.000000 0.000001 0.000000 9.086152 7.392846 -1.809516 3.124197 1.480135 -1.284677 0.000000 0.000000 0.000000 3.136775 1.474861 -1.263945 2.631081 3.001348 -0.243497 0.000000 0.000000 0.000000 3.136775 1.474861 -1.263945 0.863354 2.875893 -7.567500 -50.820408 3.482941 -53.809774 -179.998461 -75.592244 -179.998502 0.000000 0.000000 0.000000 3.136775 1.474861 -1.263945 3.937032 14.543559 -4.656809 -48.082100 26.964813 78.972478 -179.999800 72.842328 179.999800 0.000000 0.000000 0.000000 
-2.100693 80.955070 2.265438 0.000000 0.000000 0.000000 -6.836373 -46.255455 1.152180 -34.091738 4.526053 18.162108 58.919677 -6.500720 3.845383 -20.897589 -7.009134 -18.696951 0.000000 0.000000 0.000000 -6.836373 -46.255455 1.152180 -20.615650 -6.821040 -34.781827 63.710557 -5.820481 -7.241620 -30.559889 -11.092697 27.098774 0.000000 0.000000 0.000000 -6.836373 -46.255455 1.152180 -0.000000 0.000001 0.000001 8.187781 9.463705 -2.445544 3.949818 2.831910 -1.994071 0.000000 0.000000 0.000000 3.961718 2.828646 -1.970930 2.851252 2.136671 -0.734441 0.000000 0.000000 0.000000 3.961718 2.828646 -1.970930 0.791111 2.710386 -7.177292 -48.569885 -4.910039 -60.701401 179.999814 -82.504198 179.999814 0.000000 0.000000 0.000000 3.961718 2.828646 -1.970930 4.917514 16.582048 -3.718188 -42.928374 23.446347 69.552185 -179.999745 69.842359 179.999732 0.000000 0.000000 0.000000 
-1.780341 81.373291 2.906017 0.000000 0.000000 0.000000 -8.968884 -45.116815 3.806180 -30.055660 6.814183 13.084458 54.563830 -6.076192 2.958062 -18.700838 -7.720333 -17.438889 0.000000 0.000000 0.000000 -8.968884 -45.116815 3.806180 -16.954341 -4.074024 -38.765418 64.214051 -4.397358 -6.845421 -30.772844 -15.304337 27.957312 0.000000 0.000000 0.000000 -8.968884 -45.116815 3.806180 0.000000 0.000002 0.000000 5.762585 12.805526 -1.445040 4.236735 4.814908 -2.143511 0.000000 0.000000 0.000000 4.249526 4.811979 -2.116261 3.277955 0.680091 -1.580482 0.000000 0.000000 0.000000 4.249526 4.811979 -2.116261 0.929806 3.188692 -7.519256 -46.143839 -18.730136 -73.692386 -0.000073 -81.467949 -0.000087 0.000000 0.000000 0.000000 4.249526 4.811979 -2.116261 5.755396 17.273055 -2.428630 -36.469211 18.420491 57.116087 179.999964 68.127189 -179.999964 0.000000 0.000000 0.000000 
